<?xml version="1.0" encoding="utf-8"?>
<!-- Generator: Adobe Illustrator 15.0.1, SVG Export Plug-In . SVG Version: 6.00 Build 0)  -->
<!DOCTYPE svg PUBLIC "-//W3C//DTD SVG 1.1//EN" "http://www.w3.org/Graphics/SVG/1.1/DTD/svg11.dtd">
<svg version="1.1" id="Ebene_2" xmlns="http://www.w3.org/2000/svg" xmlns:xlink="http://www.w3.org/1999/xlink" x="0px" y="0px"
	 width="841.89px" height="640.102px" viewBox="0 0 841.89 640.102" enable-background="new 0 0 841.89 640.102"
	 xml:space="preserve">
<path d="M836.164,298.485c0,0-53.832,0.023-57.585,0s-4.852-1.017-4.852-5.159c0.005-9.492,0.014-28.969-0.004-31.242
	c-0.02-2.675,1.922-4.746,5.677-4.765c4.53-0.022,51.621,0,51.621,0c3.138,0,4.535-2.041,4.535-4.536v-3.762
	c0-2.495-1.182-4.536-4.535-4.536c0,0-49.594-0.007-52.399,0c-3.02,0.037-4.961-1.905-4.898-4.926c0-8.529,0-25.419,0-28.324
	c0-4.083,2.5-5.083,4.913-5.083c3.587,0,56.794,0,56.794,0c2.544,0,4.626-1.373,4.626-4.626v-3.916c0-2.544-2.082-4.626-4.626-4.626
	l-72.506,0c-2.494,0-4.535,2.041-4.535,4.536v109.595c0,3.384,1.679,4.535,4.535,4.535l73.239-0.001
	c3.131,0,4.726-2.126,4.726-4.725v-3.715C840.89,300.611,839.081,298.485,836.164,298.485z"/>
<path d="M601.005,198.765c8.611,33.507,16.375,63.513,28.396,109.894c0.812,3.135,2.615,3.056,8.847,3.056
	c6.059,0,8.021-0.058,9.174-3.865c13.549-47.968,17.541-62.257,24.572-88.828c0.816-3.086,3.257-3.07,4.07-0.189
	c9.655,34.17,16.187,58.686,24.516,88.596c1.116,4.009,3.598,4.354,9.182,4.354s7.728,0.396,9.275-5.206
	c11.928-43.162,18.175-66.447,28.965-107.905c1.296-4.978-0.412-5.679-6.437-5.679c-6.437,0-7.823,0.093-9.75,8.424
	c-7.289,31.52-9.938,41.743-20.35,83.106c-0.819,3.253-3.189,3.361-4.069,0.095c-7.952-29.532-13.536-49.978-23.947-88.502
	c-0.953-3.528-4.828-3.218-9.183-3.218c-4.45,0-8.141-0.095-9.087,3.597c-9.384,36.607-22.284,82.995-24.042,88.124
	c-1.136,3.313-3.325,2.822-3.975,0c-7.385-32.089-12.308-52.724-20.446-86.704c-1.272-5.313-4.732-4.922-9.276-4.828
	S599.645,193.474,601.005,198.765z"/>
<path d="M228.744,285.529h7.317v-1.25l-1.623-0.429v-9.712c0-1.198-0.306-1.932-1.528-1.932c-0.616,0-3.491,0.491-4.287,0.705v1.557
	h1.745v9.383l-1.624,0.429V285.529L228.744,285.529z M232.018,269.688c1.411,0,2.512-0.979,2.512-2.417
	c0-1.409-1.073-2.449-2.479-2.449c-1.378,0-2.48,1.04-2.48,2.449C229.57,268.709,230.551,269.688,232.018,269.688L232.018,269.688z
	 M237.231,285.529h6.984v-1.25l-1.321-0.429v-2.575c0-4.447,0.889-5.918,2.424-5.918c1.166,0,1.625,0.921,1.625,2.973v5.52
	l-1.321,0.429v1.25h6.924v-1.25l-1.562-0.429v-7.296c0-2.88-1.439-4.44-3.98-4.44c-2.24,0-3.956,1.53-4.388,4.223h-0.212v-2.323
	c0-1.074-0.305-1.809-1.53-1.809c-0.643,0-2.971,0.491-3.8,0.705v1.528h1.78v9.412l-1.624,0.429V285.529L237.231,285.529z
	 M258.646,285.835c1.47,0,3.187-0.58,4.535-1.651l-0.551-1.226c-0.796,0.247-1.533,0.399-2.051,0.399
	c-1.442,0-1.813-0.92-1.813-3.127v-5.608h3.619v-2.05h-3.619v-4.137H256.9l-2.235,3.955l-1.684,0.582v1.651h1.9
	c-0.094,1.379-0.216,4.568-0.216,6.588C254.665,284.214,255.4,285.835,258.646,285.835L258.646,285.835z M269.985,285.928
	c2.084,0,3.951-0.765,5.452-2.386l-0.581-0.949c-1.104,0.366-2.144,0.613-3.215,0.613c-2.393,0-4.143-1.103-4.202-4.141l7.694-0.032
	c0.854-3.827-1.043-7.074-5.239-7.074c-3.649,0-6.497,2.631-6.497,7.074C263.397,283.267,265.755,285.928,269.985,285.928
	L269.985,285.928z M269.71,273.58c1.349,0,1.869,1.441,1.593,3.435l-3.864,0.367C267.47,275.359,268.298,273.58,269.71,273.58
	L269.71,273.58z M276.698,285.529h8.3v-1.313l-2.422-0.399v-1.042c0-5.145,0.737-6.401,4.104-5.547l0.552-4.933
	c-3.032-0.49-4.656,1.656-4.87,5.335h-0.215v-3.617c0-1.318-0.52-1.809-1.53-1.809c-0.642,0-3.03,0.429-4.073,0.705v1.496h1.992
	v9.411l-1.838,0.399V285.529L276.698,285.529z M291.339,285.835c2.207,0,3.31-1.253,3.802-2.539h0.247
	c0.093,1.59,1.131,2.539,2.57,2.539c1.44,0,2.755-1.009,3.402-2.539l-0.98-0.583c-0.308,0.46-0.614,0.798-0.92,0.798
	c-0.401,0-0.644-0.337-0.644-1.225c0-1.904,0.122-4.201,0.122-5.915c0-2.853-1.469-4.351-4.929-4.351
	c-1.841,0-4.474,0.702-5.79,1.345l0.916,3.74h2.021l0.341-2.851c0.458-0.155,0.946-0.278,1.47-0.278
	c1.684,0,2.083,0.921,2.083,3.251v0.767c-3.371,0.091-7.136,1.222-7.136,4.442C287.912,284.275,289.013,285.835,291.339,285.835
	L291.339,285.835z M293.151,283.482c-0.801,0-1.23-0.646-1.23-1.596c0-1.409,1.412-2.422,3.099-2.575v1.47
	C295.02,282.593,294.131,283.482,293.151,283.482L293.151,283.482z M307.854,285.928c1.932,0,3.798-0.795,5.179-2.416l-0.734-1.165
	c-0.952,0.429-1.873,0.675-2.699,0.675c-2.083,0-3.676-1.442-3.676-4.354c0-2.941,1.408-4.567,3.338-4.567
	c0.124,0,0.337,0,0.46,0.032l0.523,3.217h2.111l0.432-4.441c-1.137-0.489-2.669-0.888-4.017-0.888c-3.951,0-7.105,2.632-7.105,7.354
	C301.668,283.512,304.547,285.928,307.854,285.928L307.854,285.928z M319.222,285.835c1.47,0,3.188-0.58,4.534-1.651l-0.55-1.226
	c-0.796,0.247-1.532,0.399-2.053,0.399c-1.44,0-1.808-0.92-1.808-3.127v-5.608h3.615v-2.05h-3.615v-4.137h-1.868l-2.234,3.955
	l-1.687,0.582v1.651h1.901c-0.094,1.379-0.214,4.568-0.214,6.588C315.243,284.214,315.977,285.835,319.222,285.835L319.222,285.835z
	 M324.221,285.529h7.318v-1.25l-1.623-0.429v-9.712c0-1.198-0.309-1.932-1.532-1.932c-0.612,0-3.492,0.491-4.288,0.705v1.557h1.747
	v9.383l-1.623,0.429V285.529L324.221,285.529z M327.498,269.688c1.406,0,2.512-0.979,2.512-2.417c0-1.409-1.073-2.449-2.482-2.449
	c-1.377,0-2.479,1.04-2.479,2.449C325.048,268.709,326.025,269.688,327.498,269.688L327.498,269.688z M336.594,285.559h4.292
	l4.138-11.121l1.316-0.705v-1.161h-5.696v1.161l1.253,0.551l-2.083,8.062h-0.154l-2.207-8.155l1.255-0.458v-1.161h-7.135v1.161
	l1.315,0.613L336.594,285.559L336.594,285.559z M352.714,285.928c2.083,0,3.952-0.765,5.453-2.386l-0.583-0.949
	c-1.103,0.366-2.143,0.613-3.214,0.613c-2.393,0-4.141-1.103-4.2-4.141l7.689-0.032c0.859-3.827-1.04-7.074-5.235-7.074
	c-3.648,0-6.497,2.631-6.497,7.074C346.126,283.267,348.484,285.928,352.714,285.928L352.714,285.928z M352.438,273.58
	c1.351,0,1.869,1.441,1.596,3.435l-3.864,0.367C350.198,275.359,351.029,273.58,352.438,273.58L352.438,273.58z M364.361,285.529
	h6.981v-1.25l-1.32-0.429v-2.578c0-4.444,0.889-5.915,2.425-5.915c1.166,0,1.623,0.921,1.623,2.973v5.52l-1.318,0.429v1.25h6.773
	v-1.25l-1.568-0.429v-2.578c0-4.444,0.861-5.915,2.393-5.915c1.167,0,1.594,0.921,1.594,2.973v5.52l-1.287,0.429v1.25h6.892v-1.25
	l-1.562-0.429v-7.296c0-2.88-1.377-4.44-3.917-4.44c-2.271,0-3.957,1.53-4.356,4.223H377.5c0-2.572-1.009-4.223-3.368-4.223
	c-2.237,0-3.955,1.53-4.386,4.223h-0.21v-2.323c0-1.074-0.306-1.809-1.533-1.809c-0.641,0-2.972,0.491-3.797,0.705v1.528h1.777
	v9.412l-1.621,0.429V285.529L364.361,285.529z M394.996,285.928c2.086,0,3.954-0.765,5.454-2.386l-0.582-0.949
	c-1.103,0.366-2.146,0.613-3.212,0.613c-2.396,0-4.143-1.103-4.206-4.141l7.691-0.032c0.858-3.827-1.04-7.074-5.234-7.074
	c-3.651,0-6.496,2.631-6.496,7.074C388.412,283.267,390.767,285.928,394.996,285.928L394.996,285.928z M394.722,273.58
	c1.35,0,1.87,1.441,1.593,3.435l-3.864,0.367C392.482,275.359,393.31,273.58,394.722,273.58L394.722,273.58z M406.087,285.835
	c2.179,0,3.528-1.346,4.262-3.766h0.217v1.838c0,1.073,0.273,1.866,1.59,1.866c0.646,0,3-0.364,3.83-0.581v-1.343l-1.596-0.276
	v-17.19c0-1.195-0.426-1.931-1.559-1.931c-0.614,0-3.066,0.275-4.046,0.49v1.317l1.72,0.429v5.669
	c-0.706-0.062-1.288-0.124-1.904-0.124c-4.442,0-6.982,2.388-6.982,7.355C401.618,282.807,403.209,285.835,406.087,285.835
	L406.087,285.835z M407.776,283.113c-1.197,0-1.78-1.902-1.78-4.169c0-3.282,0.767-4.782,2.484-4.782c0.675,0,1.351,0.244,1.9,0.736
	v1.224C410.38,280.6,409.247,283.113,407.776,283.113L407.776,283.113z M417.06,285.529h7.32v-1.25l-1.622-0.429v-9.712
	c0-1.198-0.309-1.932-1.532-1.932c-0.612,0-3.492,0.491-4.288,0.705v1.557h1.747v9.383l-1.625,0.429V285.529L417.06,285.529z
	 M420.338,269.688c1.406,0,2.51-0.979,2.51-2.417c0-1.409-1.071-2.449-2.48-2.449c-1.378,0-2.479,1.04-2.479,2.449
	C417.889,268.709,418.866,269.688,420.338,269.688L420.338,269.688z M428.946,285.835c2.207,0,3.312-1.253,3.803-2.539h0.242
	c0.095,1.59,1.136,2.539,2.573,2.539c1.438,0,2.757-1.009,3.399-2.539l-0.98-0.583c-0.305,0.46-0.612,0.798-0.919,0.798
	c-0.397,0-0.643-0.337-0.643-1.225c0-1.904,0.123-4.201,0.123-5.915c0-2.853-1.469-4.351-4.93-4.351
	c-1.844,0-4.475,0.702-5.793,1.345l0.919,3.74h2.023l0.334-2.851c0.459-0.155,0.952-0.278,1.471-0.278
	c1.688,0,2.088,0.921,2.088,3.251v0.767c-3.376,0.091-7.14,1.222-7.14,4.442C425.518,284.275,426.62,285.835,428.946,285.835
	L428.946,285.835z M430.755,283.482c-0.798,0-1.229-0.646-1.229-1.596c0-1.409,1.414-2.422,3.098-2.575v1.47
	C432.624,282.593,431.734,283.482,430.755,283.482L430.755,283.482z M450.764,285.928c2.083,0,3.951-0.765,5.451-2.386l-0.581-0.949
	c-1.103,0.366-2.143,0.613-3.214,0.613c-2.395,0-4.141-1.103-4.204-4.141l7.694-0.032c0.854-3.827-1.043-7.074-5.237-7.074
	c-3.65,0-6.495,2.631-6.495,7.074C444.178,283.267,446.532,285.928,450.764,285.928L450.764,285.928z M450.487,273.58
	c1.35,0,1.869,1.441,1.593,3.435l-3.864,0.367C448.248,275.359,449.075,273.58,450.487,273.58L450.487,273.58z M457.477,285.529
	h6.98v-1.25l-1.317-0.429v-2.575c0-4.447,0.889-5.918,2.424-5.918c1.165,0,1.625,0.921,1.625,2.973v5.52l-1.319,0.429v1.25h6.923
	v-1.25l-1.562-0.429v-7.296c0-2.88-1.44-4.44-3.98-4.44c-2.237,0-3.956,1.53-4.386,4.223h-0.213v-2.323
	c0-1.074-0.306-1.809-1.531-1.809c-0.644,0-2.969,0.491-3.798,0.705v1.528h1.777v9.412l-1.622,0.429V285.529L457.477,285.529z
	 M487.773,275.329v-3.186c-1.591,0.247-3.49,0.429-4.683,0.522c-0.95-0.431-2.145-0.646-3.523-0.646
	c-3.525,0-6.252,1.622-6.252,4.563c0,2.387,1.778,3.951,4.285,4.319c-1.559,0.521-2.507,1.625-2.507,2.634
	c0,0.83,0.336,1.502,0.979,1.992c-2.051,0.767-2.972,2.055-2.972,3.099c0,2.235,2.724,3.307,6.154,3.307
	c3.957,0,7.877-1.652,7.877-5.24c0-2.848-2.511-3.523-5.299-3.831c-2.084-0.214-3.558-0.244-3.558-1.04
	c0-0.43,0.675-0.704,1.841-0.829c2.818-0.307,5.328-1.621,5.328-4.595c0-1.01-0.276-1.809-0.767-2.481
	C486.091,274.378,487.348,275.024,487.773,275.329L487.773,275.329z M484.132,288.013c0,1.227-1.96,1.841-3.953,1.841
	c-2.393,0-4.049-0.735-4.049-2.055c0-0.52,0.277-1.104,1.012-1.686C479.196,286.971,484.132,286.54,484.132,288.013L484.132,288.013
	z M479.473,279.56c-1.319,0-2.115-1.136-2.115-3.067c0-1.84,0.705-2.942,1.962-2.942c1.288,0,2.055,1.102,2.055,2.942
	C481.374,278.424,480.669,279.56,479.473,279.56L479.473,279.56z M488.422,285.529h7.32v-1.25l-1.626-0.429v-9.712
	c0-1.198-0.306-1.932-1.528-1.932c-0.614,0-3.492,0.491-4.286,0.705v1.557h1.743v9.383l-1.623,0.429V285.529L488.422,285.529z
	 M491.699,269.688c1.409,0,2.51-0.979,2.51-2.417c0-1.409-1.071-2.449-2.479-2.449c-1.378,0-2.48,1.04-2.48,2.449
	C489.25,268.709,490.228,269.688,491.699,269.688L491.699,269.688z M496.909,285.529h6.982v-1.25l-1.317-0.429v-2.575
	c0-4.447,0.889-5.918,2.422-5.918c1.166,0,1.626,0.921,1.626,2.973v5.52l-1.318,0.429v1.25h6.922v-1.25l-1.562-0.429v-7.296
	c0-2.88-1.438-4.44-3.98-4.44c-2.24,0-3.956,1.53-4.386,4.223h-0.214v-2.323c0-1.074-0.305-1.809-1.533-1.809
	c-0.641,0-2.969,0.491-3.795,0.705v1.528h1.778v9.412l-1.625,0.429V285.529L496.909,285.529z M519.675,285.928
	c2.083,0,3.95-0.765,5.45-2.386l-0.581-0.949c-1.103,0.366-2.145,0.613-3.214,0.613c-2.394,0-4.141-1.103-4.202-4.141l7.692-0.032
	c0.858-3.827-1.043-7.074-5.238-7.074c-3.646,0-6.496,2.631-6.496,7.074C513.086,283.267,515.442,285.928,519.675,285.928
	L519.675,285.928z M519.397,273.58c1.35,0,1.87,1.441,1.597,3.435l-3.866,0.367C517.159,275.359,517.987,273.58,519.397,273.58
	L519.397,273.58z M532.91,285.928c2.085,0,3.952-0.765,5.453-2.386l-0.582-0.949c-1.101,0.366-2.144,0.613-3.215,0.613
	c-2.393,0-4.142-1.103-4.201-4.141l7.689-0.032c0.859-3.827-1.04-7.074-5.235-7.074c-3.647,0-6.497,2.631-6.497,7.074
	C526.322,283.267,528.682,285.928,532.91,285.928L532.91,285.928z M532.634,273.58c1.352,0,1.871,1.441,1.595,3.435l-3.863,0.367
	C530.396,275.359,531.227,273.58,532.634,273.58L532.634,273.58z M539.621,285.529h8.301v-1.313l-2.421-0.399v-1.042
	c0-5.145,0.736-6.401,4.107-5.547l0.55-4.933c-3.034-0.49-4.657,1.656-4.872,5.335h-0.214v-3.617c0-1.318-0.519-1.809-1.53-1.809
	c-0.641,0-3.031,0.429-4.073,0.705v1.496h1.99v9.411l-1.838,0.399V285.529L539.621,285.529z M550.989,285.529h7.32v-1.25
	l-1.626-0.429v-9.712c0-1.198-0.305-1.932-1.526-1.932c-0.614,0-3.492,0.491-4.29,0.705v1.557h1.746v9.383l-1.624,0.429V285.529
	L550.989,285.529z M554.265,269.688c1.41,0,2.514-0.979,2.514-2.417c0-1.409-1.071-2.449-2.479-2.449
	c-1.377,0-2.483,1.04-2.483,2.449C551.815,268.709,552.796,269.688,554.265,269.688L554.265,269.688z M559.477,285.529h6.984v-1.25
	l-1.319-0.429v-2.575c0-4.447,0.889-5.918,2.422-5.918c1.166,0,1.626,0.921,1.626,2.973v5.52l-1.318,0.429v1.25h6.922v-1.25
	l-1.562-0.429v-7.296c0-2.88-1.438-4.44-3.98-4.44c-2.238,0-3.956,1.53-4.385,4.223h-0.215v-2.323c0-1.074-0.305-1.809-1.53-1.809
	c-0.643,0-2.972,0.491-3.798,0.705v1.528h1.777v9.412l-1.624,0.429V285.529L559.477,285.529z M589.775,275.329v-3.186
	c-1.593,0.247-3.49,0.429-4.685,0.522c-0.948-0.431-2.143-0.646-3.523-0.646c-3.524,0-6.247,1.622-6.247,4.563
	c0,2.387,1.773,3.951,4.284,4.319c-1.561,0.521-2.509,1.625-2.509,2.634c0,0.83,0.338,1.502,0.979,1.992
	c-2.054,0.767-2.969,2.055-2.969,3.099c0,2.235,2.722,3.307,6.154,3.307c3.954,0,7.875-1.652,7.875-5.24
	c0-2.848-2.511-3.523-5.3-3.831c-2.085-0.214-3.556-0.244-3.556-1.04c0-0.43,0.674-0.704,1.84-0.829
	c2.819-0.307,5.33-1.621,5.33-4.595c0-1.01-0.275-1.809-0.766-2.481C588.092,274.378,589.349,275.024,589.775,275.329
	L589.775,275.329z M586.136,288.013c0,1.227-1.964,1.841-3.957,1.841c-2.389,0-4.045-0.735-4.045-2.055
	c0-0.52,0.275-1.104,1.01-1.686C581.198,286.971,586.136,286.54,586.136,288.013L586.136,288.013z M581.475,279.56
	c-1.319,0-2.117-1.136-2.117-3.067c0-1.84,0.707-2.942,1.967-2.942c1.285,0,2.055,1.102,2.055,2.942
	C583.379,278.424,582.672,279.56,581.475,279.56L581.475,279.56z"/>
<path d="M560.929,387.09c-5.704-4.858-8.646-4.275-8.646-5.941c0-1.879,2.858-2.417,7.284-7.259
	c4.626-5.062,7.132-11.542,7.132-18.823c0-15.982-12.041-29.29-30.865-29.29c-0.865,0-7.568-0.123-9.479-0.123h-8.763
	c-24.101,0-34.607-0.045-34.607-0.045c-2.494,0-4.535,2.041-4.535,4.536v109.59c-0.037,3.306,1.713,4.431,4.535,4.535l42.138-0.001
	c3.082,0.044,6.621,0.075,10.158-0.05c0.099,0.001,0.195,0.009,0.295,0.009c21.333,0,36.25-15.091,36.25-33.707
	C571.824,399.865,567.508,392.159,560.929,387.09z M493.782,343.858c0-4.083,2.5-5.082,4.913-5.082h27.657
	c6.847,0.125,9.597,0.208,13.805,1.481c6.249,1.891,11.363,9.662,11.363,17.454c0,7.803-3.655,14.437-11.363,16.833l0,0
	c-3.795,1.425-8.048,2.09-12.857,2.271c0,0-11.201-0.001-28.619-0.001c-2.957,0-4.961-2.104-4.898-5.125V343.858z M539.756,430.563
	c-1.365,0.245-2.748,0.406-4.042,0.509c-0.595,0.033-1.186,0.073-1.806,0.073c-0.85,0-25.018-0.047-24.97,0.015
	c-4.811-0.02-8.332-0.044-10.301-0.057c-3.753-0.023-4.852-1.017-4.852-5.159c0.005-9.492,0.014-28.967-0.004-31.241
	c-0.02-2.675,1.922-4.746,5.677-4.765c2.761-0.014,35.323,0.002,35.323,0.002c13.125,0,21.125,9.485,21.125,20.58
	C555.907,420.259,550.407,428.4,539.756,430.563z"/>
<path d="M778.637,337.651c3.587,0,56.794,0,56.794,0c2.544,0,4.626-1.373,4.626-4.626v-3.915c0-3.147-1.841-4.625-5.303-4.625
	h-71.829c-2.494,0-4.535,2.041-4.535,4.536v109.59c0,3.384,1.679,4.535,4.535,4.535l54.986,0.01
	c9.544,0.003,17.237,0.007,17.237,0.007c3.223,0,4.658-2.096,4.658-4.658v-3.864c0-2.563-1.213-4.659-4.658-4.659
	c0,0-0.382,0-1.05,0c0,0-53.223,0.013-55.52-0.002c-3.753-0.023-4.852-1.017-4.852-5.159c0.005-9.492,0.014-28.967-0.004-31.241
	c-0.02-2.675,1.922-4.746,5.677-4.765c4.53-0.022,51.621,0,51.621,0c3.138,0,4.535-2.041,4.535-4.535v-3.763
	c0-2.495-1.182-4.536-4.535-4.536c0,0-49.594-0.007-52.399,0c-3.02,0.037-4.961-1.905-4.898-4.926v-28.323
	C773.724,338.65,776.224,337.651,778.637,337.651z"/>
<path d="M746.599,324.651c-3.25,0-85.542-0.067-89.374,0c-2.374,0.042-3.772,0.364-6.376,4.583
	c-11.869,19.234-18.332,29.676-27.506,44.504c-2.098,3.39-3.151,4.879-4.674,4.903c-1.63,0.025-2.445-1.659-4.445-4.784
	c-11.307-17.66-17.827-27.93-28.875-45.373c-2.581-4.074-7-4.125-12.625-4s-7.798,1.323-4.625,6.125
	c19.123,28.935,24.875,37.873,40,60.872c1.625,2.5,2.125,4.25,2.125,8.375c0,3.021-0.027,37.811-0.027,37.811
	c0,3.832,2.492,5.54,5.54,5.54h4.596c3.049,0,5.542-1.443,5.542-5.54l-0.025-38.186c0-2.5,0.125-4.5,2-7.75
	c6.5-10.125,16.496-25.435,32.375-50.123c1.369-2.129,2.528-4,4.25-4c15.126,0,27,0,27,0c5.625,0,6.625,2,6.625,5.625
	c0,35.498-0.25,94.495-0.25,94.495c0,3.832,2.465,5.478,5.513,5.478h4.596c3.049,0,5.542-1.443,5.542-5.54l-0.025-94.308
	c0-4.01,0.92-5.625,5.767-5.625h26.608c4.125,0,4.75-2.375,4.75-6.375S749.849,324.651,746.599,324.651z"/>
</svg>
